<svg xmlns="http://www.w3.org/2000/svg" width="24" height="24" fill="none"><path fill="#fff" fill-rule="evenodd" d="M.668 3.329c0 .368.298.666.667.666h1.857c.341 0 .627.258.663.598l1.28 12.288a2 2 0 0 0 1.99 1.792H19.96a.667.667 0 0 0 0-1.333H7.124a.667.667 0 0 1-.663-.598l-.084-.806 12.875-1.206a1 1 0 0 0 .866-.714l2.173-7.4a1 1 0 0 0-.96-1.283H5.274l-.092-.878a2 2 0 0 0-1.99-1.793H1.336a.667.667 0 0 0-.667.667ZM8.001 22.667a1.333 1.333 0 1 0 0-2.667 1.333 1.333 0 0 0 0 2.667ZM17.333 22.667a1.333 1.333 0 1 0 0-2.667 1.333 1.333 0 0 0 0 2.667Z" clip-rule="evenodd"/></svg>